#!OML:ASF H:\Terrain\Patient Classification 1\Animal1\Tuesday\Animal1.ASF
:FULLY-SPECIFIED
:DEGREES
781
root 1.49448 15.4443 -18.0053 -178.694 84.7904 167.11
lowerback 20.2593 -2.05563 -4.6094
upperback 11.2028 -2.50697 -1.87694
thorax 0.965504 -1.0141 1.08099
lowerneck -7.7281 -3.95984 -7.00326
upperneck -12.9897 -2.94296 17.8176
head -2.02912 -1.33767 6.64108
rclavicle -1.90833e-014 -7.95139e-016
rhumerus 12.922 21.6322 -43.3363
rradius 31.8837
rwrist -49.8
rhand 12.3827 19.3659
rfingers 7.12502
rthumb 37.3826 -6.59872
lclavicle -1.90833e-014 -7.95139e-016
lhumerus 34.8392 -36.7491 23.0193
lradius 38.8367
lwrist -2.34759
lhand 29.4449 42.0487
lfingers 7.12502
lthumb 53.2072 61.409
rfemur -56.5082 -14.0482 29.9192
rtibia 50.4592
rfoot -12.542 -12.8782
rtoes 18.9329
lfemur -33.7904 15.0777 -20.9634
ltibia 46.031
lfoot -12.7601 18.9392
ltoes -14.0992
782
root 1.63669 15.5014 -18.0578 -185.532 85.5608 160.212
lowerback 19.9841 -2.06111 -4.35821
upperback 11.0791 -2.49497 -1.86216
thorax 0.950987 -1.00798 0.948363
lowerneck -8.04982 -4.01131 -6.98712
upperneck -12.6066 -3.07623 17.7147
head -1.85217 -1.38263 6.58842
rclavicle 3.97569e-015 -6.36111e-015
rhumerus 13.2862 21.7258 -43.6482
rradius 32.0664
rwrist -49.5717
rhand 12.845 20.3588
rfingers 7.12502
rthumb 37.8194 -5.48935
lclavicle 3.97569e-015 -6.36111e-015
lhumerus 33.7172 -37.2859 23.2101
lradius 38.7114
lwrist -2.1193
lhand 29.9894 42.2769
lfingers 7.12502
lthumb 53.6974 61.3175
rfemur -55.6443 -13.7413 29.8337
rtibia 47.2525
rfoot -11.5655 -15.3721
rtoes 13.8371
lfemur -32.4998 14.6122 -21.288
ltibia 45.0544
lfoot -12.2486 19.5179
ltoes -13.1432
783
root 1.7779 15.5821 -18.0998 -195.849 86.2361 149.728
lowerback 19.571 -2.22996 -4.23183
upperback 10.8104 -2.73418 -1.84081
thorax 0.867544 -1.13814 0.935859
lowerneck -7.92246 -3.84352 -7.22751
upperneck -12.1632 -2.92813 17.6257
head -1.76105 -1.30253 6.59757
rclavicle -2.14687e-014 -4.77083e-015
rhumerus 14.0028 22.9113 -43.5813
rradius 32.4291
rwrist -50.0607
rhand 12.9738 20.3784
rfingers 7.12502
rthumb 37.9411 -5.43686
lclavicle -2.14687e-014 -4.77083e-015
lhumerus 31.6822 -37.7456 24.0062
lradius 38.5446
lwrist -1.9509
lhand 30.8333 42.8617
lfingers 7.12502
lthumb 54.4545 61.3877
rfemur -54.6298 -13.0129 29.2061
rtibia 43.9542
rfoot -12.7152 -16.1165
rtoes 18.917
lfemur -31.3916 14.035 -21.6533
ltibia 44.2365
lfoot -11.4299 19.9995
ltoes -13.2756
784
root 1.92039 15.6584 -18.1315 -209.766 86.8688 135.586
lowerback 19.1419 -2.42888 -4.12176
upperback 10.4323 -3.03107 -1.8181
thorax 0.678045 -1.29954 0.944568
lowerneck -7.42859 -3.57203 -7.77847
upperneck -11.8074 -2.60215 17.8423
head -1.76244 -1.14728 6.77069
rclavicle -1.03368e-014 3.02153e-014
rhumerus 14.777 24.5609 -43.4637
rradius 32.9411
rwrist -50.7801
rhand 12.6743 19.6608
rfingers 7.12502
rthumb 37.6581 -6.23064
lclavicle -1.03368e-014 3.02153e-014
lhumerus 29.317 -38.2701 24.9707
lradius 38.1685
lwrist -1.6805
lhand 31.0604 43.063
lfingers 7.12502
lthumb 54.6577 61.4464
rfemur -53.6649 -11.8983 28.5065
rtibia 40.8267
rfoot -16.3908 -15.5367
rtoes 36.2504
lfemur -30.3984 13.5862 -21.9025
ltibia 43.4192
lfoot -9.94892 20.52
ltoes -15.324
785
root 2.06737 15.7113 -18.1641 -229.948 87.1762 115.216
lowerback 18.7844 -2.39576 -4.00901
upperback 10.1171 -3.01624 -1.86483
thorax 0.505008 -1.29933 0.824883
lowerneck -7.05056 -3.47734 -7.91086
upperneck -11.5789 -2.52081 17.9552
head -1.7635 -1.12333 6.83169
rclavicle 1.03368e-014 2.38542e-015
rhumerus 14.9933 25.7087 -43.5134
rradius 33.6072
rwrist -51.481
rhand 12.3893 19.1281
rfingers 7.12502
rthumb 37.3888 -6.83488
lclavicle 1.03368e-014 2.38542e-015
lhumerus 28.0014 -39.3028 25.1005
lradius 37.9323
lwrist -1.07997
lhand 30.8296 43.2608
lfingers 7.12502
lthumb 54.4512 61.7891
rfemur -52.7338 -10.693 27.7206
rtibia 37.8754
rfoot -11.0149 -19.9817
rtoes 11.3724
lfemur -29.4445 13.1585 -22.2153
ltibia 42.708
lfoot -9.02242 20.7715
ltoes -13.1863
786
root 2.21554 15.7708 -18.1896 -251.784 87.0307 93.273
lowerback 18.4825 -2.23349 -3.85651
upperback 9.89442 -2.81438 -2.01675
thorax 0.390573 -1.1981 0.540141
lowerneck -6.93995 -3.51491 -7.57921
upperneck -11.2278 -2.66133 17.8532
head -1.672 -1.20634 6.73051
rclavicle 5.36719e-014 8.74653e-015
rhumerus 14.8372 26.01 -44.078
rradius 34.0669
rwrist -51.7603
rhand 12.2965 18.7349
rfingers 7.12502
rthumb 37.3011 -7.25113
lclavicle 5.36719e-014 8.74653e-015
lhumerus 27.3898 -40.7021 24.4665
lradius 37.9597
lwrist -0.380211
lhand 31.0339 43.5278
lfingers 7.12502
lthumb 54.634 61.9279
rfemur -51.6329 -9.3369 26.6893
rtibia 35.1115
rfoot -11.8311 -21.665
rtoes 16.8051
lfemur -28.5131 12.8018 -22.5742
ltibia 42.2016
lfoot -7.78368 20.9025
ltoes -11.4516
787
root 2.36485 15.8361 -18.2066 -269.361 86.4657 75.6919
lowerback 18.2011 -2.11611 -3.72316
upperback 9.76624 -2.66042 -2.23035
thorax 0.371214 -1.11801 0.208538
lowerneck -6.84338 -3.5341 -7.21975
upperneck -10.9574 -2.76821 17.682
head -1.60926 -1.27252 6.60509
rclavicle -5.28767e-014 5.1684e-015
rhumerus 14.8082 25.157 -45.4973
rradius 33.8264
rwrist -50.6923
rhand 12.9646 18.5532
rfingers 7.12502
rthumb 37.9325 -7.26436
lclavicle -5.28767e-014 5.1684e-015
lhumerus 26.6629 -41.9869 23.7243
lradius 38.1645
lwrist 0.29621
lhand 31.2679 43.6371
lfingers 7.12502
lthumb 54.8431 61.8886
rfemur -50.3618 -7.71168 25.2776
rtibia 32.6381
rfoot -15.9775 -22.0663
rtoes 31.2306
lfemur -27.6077 12.5493 -22.9709
ltibia 41.9005
lfoot -5.68705 21.0367
ltoes -13.8818
788
root 2.51771 15.8789 -18.2219 -280.653 85.6747 64.4053
lowerback 17.8822 -1.94679 -4.02374
upperback 9.68889 -2.49204 -2.03272
thorax 0.472312 -1.06133 0.54844
lowerneck -6.62111 -3.4864 -7.33913
upperneck -10.9197 -2.75418 17.3173
head -1.64703 -1.27261 6.51143
rclavicle -1.03368e-014 -1.39149e-014
rhumerus 15.2303 24.7722 -46.0227
rradius 33.734
rwrist -50.1045
rhand 13.6119 18.1491
rfingers 7.12502
rthumb 38.5435 -7.50015
lclavicle -1.03368e-014 -1.39149e-014
lhumerus 25.6209 -43.0526 23.803
lradius 38.4026
lwrist 0.990287
lhand 31.2749 43.4174
lfingers 7.12502
lthumb 54.8493 61.6645
rfemur -49.3095 -5.8859 23.7048
rtibia 30.6779
rfoot -17.2908 -23.7735
rtoes 32.1677
lfemur -26.8539 12.4211 -23.3902
ltibia 41.7917
lfoot -3.81399 21.0396
ltoes -15.2043
789
root 2.66979 15.9126 -18.2288 -288.096 84.6675 56.8832
lowerback 17.541 -1.83811 -4.48635
upperback 9.59804 -2.42417 -1.89452
thorax 0.579668 -1.05906 0.933146
lowerneck -6.58406 -3.39908 -7.5066
upperneck -10.7221 -2.68729 17.0609
head -1.60975 -1.23237 6.45677
rclavicle 2.5842e-014 7.15625e-015
rhumerus 15.9494 25.4599 -45.9162
rradius 34.0935
rwrist -50.6806
rhand 13.517 17.6577
rfingers 7.12502
rthumb 38.4539 -8.01661
lclavicle 2.5842e-014 7.15625e-015
lhumerus 24.3137 -43.8966 24.1011
lradius 38.5992
lwrist 1.30618
lhand 31.9083 43.2273
lfingers 7.12502
lthumb 55.4139 61.0623
rfemur -48.6178 -3.74336 21.9218
rtibia 29.2859
rfoot -16.2559 -26.7773
rtoes 28.8366
lfemur -26.2917 12.3278 -23.9191
ltibia 41.8279
lfoot -2.58335 20.9969
ltoes -13.1971
